{
	"nodes":[{
		"name":"Null.1",
		"translation":[-3.442882537841797,
		-122.26968383789063,
		323.2366943359375],
		"children":[1,
		2,
		3,
		4,
		5,
		6,
		7,
		8],
		"scale":[1.0,
		1.0,
		1.0],
		"rotation":[0.0,
		0.0,
		0.0,
		-1.0]
	},
	{
		"name":"Null.1-Mat.2",
		"mesh":0
	},
	{
		"name":"Null.1-Mat.1",
		"mesh":1
	},
	{
		"name":"Null.1-black",
		"mesh":2
	},
	{
		"name":"Null.1-black",
		"mesh":3
	},
	{
		"name":"Null.1-Mat",
		"mesh":4
	},
	{
		"name":"Null.1-Mat",
		"mesh":5
	},
	{
		"name":"Null.1-black",
		"mesh":6
	},
	{
		"name":"Null.1-black",
		"mesh":7
	}],
	"asset":{
		"version":"2.0",
		"generator":"Created using the official Cinema 4D glTF Exporter 1.000x284978"
	},
	"scenes":[{
		"nodes":[0]
	}],
	"materials":[{
		"pbrMetallicRoughness":{
			"baseColorFactor":[0.8,
			0.6375999999999995,
			0.6320000000000001,
			1.0],
			"metallicFactor":0.0,
			"roughnessFactor":0.5
		},
		"emissiveFactor":[0.0,
		0.0,
		0.0],
		"alphaMode":"OPAQUE",
		"doubleSided":false,
		"name":"Mat.2"
	},
	{
		"pbrMetallicRoughness":{
			"baseColorFactor":[0.8,
			0.5447999999999995,
			0.5359999999999999,
			1.0],
			"metallicFactor":1.0,
			"roughnessFactor":1.0
		},
		"emissiveFactor":[0.0,
		0.0,
		0.0],
		"alphaMode":"OPAQUE",
		"doubleSided":false,
		"name":"Mat.1"
	},
	{
		"pbrMetallicRoughness":{
			"baseColorFactor":[0.09,
			0.06785999999999998,
			0.053099999999999997,
			1.0],
			"metallicFactor":1.0,
			"roughnessFactor":1.0
		},
		"emissiveFactor":[0.0,
		0.0,
		0.0],
		"alphaMode":"OPAQUE",
		"doubleSided":false,
		"name":"black"
	},
	{
		"pbrMetallicRoughness":{
			"baseColorFactor":[0.14,
			0.059360000000000027,
			0.005600000000000005,
			1.0],
			"metallicFactor":1.0,
			"roughnessFactor":1.0
		},
		"emissiveFactor":[0.0,
		0.0,
		0.0],
		"alphaMode":"OPAQUE",
		"doubleSided":false,
		"name":"Mat"
	}],
	"meshes":[{
		"name":"Null.1-Mat.2",
		"primitives":[{
			"attributes":{
				"POSITION":1,
				"NORMAL":2,
				"TEXCOORD_0":3
			},
			"indices":0,
			"material":0
		}]
	},
	{
		"name":"Null.1-Mat.1",
		"primitives":[{
			"attributes":{
				"POSITION":5,
				"NORMAL":6,
				"TEXCOORD_0":7
			},
			"indices":4,
			"material":1
		}]
	},
	{
		"name":"Null.1-black",
		"primitives":[{
			"attributes":{
				"POSITION":9,
				"NORMAL":10,
				"TEXCOORD_0":11
			},
			"indices":8,
			"material":2
		}]
	},
	{
		"name":"Null.1-black",
		"primitives":[{
			"attributes":{
				"POSITION":13,
				"NORMAL":14,
				"TEXCOORD_0":15
			},
			"indices":12,
			"material":2
		}]
	},
	{
		"name":"Null.1-Mat",
		"primitives":[{
			"attributes":{
				"POSITION":17,
				"NORMAL":18,
				"TEXCOORD_0":19
			},
			"indices":16,
			"material":3
		}]
	},
	{
		"name":"Null.1-Mat",
		"primitives":[{
			"attributes":{
				"POSITION":21,
				"NORMAL":22,
				"TEXCOORD_0":23
			},
			"indices":20,
			"material":3
		}]
	},
	{
		"name":"Null.1-black",
		"primitives":[{
			"attributes":{
				"POSITION":25,
				"NORMAL":26,
				"TEXCOORD_0":27
			},
			"indices":24,
			"material":2
		}]
	},
	{
		"name":"Null.1-black",
		"primitives":[{
			"attributes":{
				"POSITION":29,
				"NORMAL":30,
				"TEXCOORD_0":31
			},
			"indices":28,
			"material":2
		}]
	}],
	"accessors":[{
		"bufferView":0,
		"min":[0],
		"type":"SCALAR",
		"componentType":5123,
		"count":420,
		"max":[265],
		"byteOffset":0
	},
	{
		"bufferView":1,
		"min":[-311.4024963378906,
		-318.4104309082031,
		-682.9718017578125],
		"type":"VEC3",
		"componentType":5126,
		"count":266,
		"max":[318.2882385253906,
		300.91845703125,
		42.09027099609375],
		"byteOffset":0
	},
	{
		"bufferView":1,
		"min":[-0.9485625624656677,
		-0.9995312690734863,
		-0.9927188158035278],
		"type":"VEC3",
		"componentType":5126,
		"count":266,
		"max":[0.9438750743865967,
		0.9493125677108765,
		0.9995312690734863],
		"byteOffset":12
	},
	{
		"bufferView":1,
		"min":[0.0,
		0.0],
		"type":"VEC2",
		"componentType":5126,
		"count":266,
		"max":[1.0,
		1.0],
		"byteOffset":24
	},
	{
		"bufferView":2,
		"min":[0],
		"type":"SCALAR",
		"componentType":5123,
		"count":60,
		"max":[43],
		"byteOffset":0
	},
	{
		"bufferView":3,
		"min":[-95.85028076171875,
		-98.97724151611328,
		-48.11923599243164],
		"type":"VEC3",
		"componentType":5126,
		"count":44,
		"max":[102.73604583740235,
		-39.99693298339844,
		-18.091514587402345],
		"byteOffset":0
	},
	{
		"bufferView":3,
		"min":[-0.320250004529953,
		-0.8363437652587891,
		0.538937509059906],
		"type":"VEC3",
		"componentType":5126,
		"count":44,
		"max":[0.320250004529953,
		0.5975000262260437,
		0.8990625143051148],
		"byteOffset":12
	},
	{
		"bufferView":3,
		"min":[0.0,
		1.0],
		"type":"VEC2",
		"componentType":5126,
		"count":44,
		"max":[1.0,
		1.0],
		"byteOffset":24
	},
	{
		"bufferView":4,
		"min":[0],
		"type":"SCALAR",
		"componentType":5123,
		"count":288,
		"max":[195],
		"byteOffset":0
	},
	{
		"bufferView":5,
		"min":[-144.55108642578126,
		106.5022964477539,
		-64.64268493652344],
		"type":"VEC3",
		"componentType":5126,
		"count":196,
		"max":[144.55108642578126,
		160.91552734375,
		-10.229452133178711],
		"byteOffset":0
	},
	{
		"bufferView":5,
		"min":[-0.8628438115119934,
		-1.0,
		-0.8628438115119934],
		"type":"VEC3",
		"componentType":5126,
		"count":196,
		"max":[0.8628438115119934,
		1.0,
		0.8628438115119934],
		"byteOffset":12
	},
	{
		"bufferView":5,
		"min":[0.0,
		0.0],
		"type":"VEC2",
		"componentType":5126,
		"count":196,
		"max":[1.0,
		1.0],
		"byteOffset":24
	},
	{
		"bufferView":6,
		"min":[0],
		"type":"SCALAR",
		"componentType":5123,
		"count":894,
		"max":[334],
		"byteOffset":0
	},
	{
		"bufferView":7,
		"min":[-211.56007385253907,
		70.1419677734375,
		-1.405947208404541],
		"type":"VEC3",
		"componentType":5126,
		"count":335,
		"max":[211.19473266601563,
		196.18411254882813,
		34.0095329284668],
		"byteOffset":0
	},
	{
		"bufferView":7,
		"min":[-0.9886875748634338,
		-1.0,
		-1.0],
		"type":"VEC3",
		"componentType":5126,
		"count":335,
		"max":[0.9886875748634338,
		1.0,
		1.0],
		"byteOffset":12
	},
	{
		"bufferView":7,
		"min":[0.0,
		0.0],
		"type":"VEC2",
		"componentType":5126,
		"count":335,
		"max":[1.0,
		1.0],
		"byteOffset":24
	},
	{
		"bufferView":8,
		"min":[0],
		"type":"SCALAR",
		"componentType":5123,
		"count":516,
		"max":[211],
		"byteOffset":0
	},
	{
		"bufferView":9,
		"min":[-273.619140625,
		-226.46917724609376,
		-313.4998474121094],
		"type":"VEC3",
		"componentType":5126,
		"count":212,
		"max":[278.2010192871094,
		210.3328399658203,
		-29.440628051757814],
		"byteOffset":0
	},
	{
		"bufferView":9,
		"min":[-1.0,
		-1.0,
		-1.0],
		"type":"VEC3",
		"componentType":5126,
		"count":212,
		"max":[1.0,
		1.0,
		1.0],
		"byteOffset":12
	},
	{
		"bufferView":9,
		"min":[0.0,
		0.0],
		"type":"VEC2",
		"componentType":5126,
		"count":212,
		"max":[1.0,
		1.0],
		"byteOffset":24
	},
	{
		"bufferView":10,
		"min":[0],
		"type":"SCALAR",
		"componentType":5123,
		"count":240,
		"max":[96],
		"byteOffset":0
	},
	{
		"bufferView":11,
		"min":[-147.44642639160157,
		-64.5411376953125,
		-45.873538970947269],
		"type":"VEC3",
		"componentType":5126,
		"count":97,
		"max":[154.33218383789063,
		5.911284923553467,
		7.495688438415527],
		"byteOffset":0
	},
	{
		"bufferView":11,
		"min":[-0.6433125138282776,
		-0.9969375729560852,
		-0.9991875290870667],
		"type":"VEC3",
		"componentType":5126,
		"count":97,
		"max":[0.6433125138282776,
		0.9966250658035278,
		0.9823125600814819],
		"byteOffset":12
	},
	{
		"bufferView":11,
		"min":[0.0,
		0.0],
		"type":"VEC2",
		"componentType":5126,
		"count":97,
		"max":[1.0,
		1.0],
		"byteOffset":24
	},
	{
		"bufferView":12,
		"min":[0],
		"type":"SCALAR",
		"componentType":5123,
		"count":480,
		"max":[231],
		"byteOffset":0
	},
	{
		"bufferView":13,
		"min":[-205.4130096435547,
		210.8650665283203,
		-20.117963790893556],
		"type":"VEC3",
		"componentType":5126,
		"count":232,
		"max":[215.86427307128907,
		248.14273071289063,
		41.14112854003906],
		"byteOffset":0
	},
	{
		"bufferView":13,
		"min":[-0.5931562781333923,
		-0.9076563119888306,
		-0.9999688267707825],
		"type":"VEC3",
		"componentType":5126,
		"count":232,
		"max":[0.5931562781333923,
		0.9076563119888306,
		0.9999688267707825],
		"byteOffset":12
	},
	{
		"bufferView":13,
		"min":[0.0,
		0.0],
		"type":"VEC2",
		"componentType":5126,
		"count":232,
		"max":[1.0,
		1.0],
		"byteOffset":24
	},
	{
		"bufferView":14,
		"min":[0],
		"type":"SCALAR",
		"componentType":5123,
		"count":966,
		"max":[466],
		"byteOffset":0
	},
	{
		"bufferView":15,
		"min":[-294.2525939941406,
		-159.52894592285157,
		-721.9838256835938],
		"type":"VEC3",
		"componentType":5126,
		"count":467,
		"max":[309.8179931640625,
		595.996337890625,
		39.92566680908203],
		"byteOffset":0
	},
	{
		"bufferView":15,
		"min":[-0.9695938229560852,
		-0.9994062781333923,
		-0.9469375610351563],
		"type":"VEC3",
		"componentType":5126,
		"count":467,
		"max":[0.9845625758171082,
		0.9378125667572022,
		0.9959688186645508],
		"byteOffset":12
	},
	{
		"bufferView":15,
		"min":[0.0,
		0.0],
		"type":"VEC2",
		"componentType":5126,
		"count":467,
		"max":[1.0,
		1.0],
		"byteOffset":24
	}],
	"bufferViews":[{
		"buffer":0,
		"byteOffset":0,
		"byteLength":840,
		"target":34963
	},
	{
		"buffer":0,
		"byteOffset":840,
		"byteLength":8512,
		"target":34962,
		"byteStride":32
	},
	{
		"buffer":1,
		"byteOffset":0,
		"byteLength":120,
		"target":34963
	},
	{
		"buffer":1,
		"byteOffset":120,
		"byteLength":1408,
		"target":34962,
		"byteStride":32
	},
	{
		"buffer":2,
		"byteOffset":0,
		"byteLength":576,
		"target":34963
	},
	{
		"buffer":2,
		"byteOffset":576,
		"byteLength":6272,
		"target":34962,
		"byteStride":32
	},
	{
		"buffer":3,
		"byteOffset":0,
		"byteLength":1788,
		"target":34963
	},
	{
		"buffer":3,
		"byteOffset":1788,
		"byteLength":10720,
		"target":34962,
		"byteStride":32
	},
	{
		"buffer":4,
		"byteOffset":0,
		"byteLength":1032,
		"target":34963
	},
	{
		"buffer":4,
		"byteOffset":1032,
		"byteLength":6784,
		"target":34962,
		"byteStride":32
	},
	{
		"buffer":5,
		"byteOffset":0,
		"byteLength":480,
		"target":34963
	},
	{
		"buffer":5,
		"byteOffset":480,
		"byteLength":3104,
		"target":34962,
		"byteStride":32
	},
	{
		"buffer":6,
		"byteOffset":0,
		"byteLength":960,
		"target":34963
	},
	{
		"buffer":6,
		"byteOffset":960,
		"byteLength":7424,
		"target":34962,
		"byteStride":32
	},
	{
		"buffer":7,
		"byteOffset":0,
		"byteLength":1932,
		"target":34963
	},
	{
		"buffer":7,
		"byteOffset":1932,
		"byteLength":14944,
		"target":34962,
		"byteStride":32
	}],
	"buffers":[{
		"uri":"data:application/octet-stream;base64,",
		"byteLength":9352
	},
	{
		"uri":"data:application/octet-stream;base64,",
		"byteLength":1528
	},
	{
		"uri":"data:application/octet-stream;base64,",
		"byteLength":6848
	},
	{
		"uri":"data:application/octet-stream;base64,",
		"byteLength":12508
	},
	{
		"uri":"data:application/octet-stream;base64,",
		"byteLength":7816
	},
	{
		"uri":"data:application/octet-stream;base64,",
		"byteLength":3584
	},
	{
		"uri":"data:application/octet-stream;base64,",
		"byteLength":8384
	},
	{
		"uri":"data:application/octet-stream;base64,",
		"byteLength":16876
	}]
}